<?xml version="1.0" encoding="UTF-8"?>
<svg id="Layer_1" xmlns="http://www.w3.org/2000/svg" xmlns:xlink="http://www.w3.org/1999/xlink" version="1.1" viewBox="0 0 1009.4 683.2">
  <!-- Generator: Adobe Illustrator 29.7.1, SVG Export Plug-In . SVG Version: 2.1.1 Build 8)  -->
  <defs>
    <clipPath id="clippath">
      <rect x="242.93" y="82.63" width="534.67" height="534.67" fill="none"/>
    </clipPath>
    <clipPath id="clippath-1">
      <rect x="242.2" y="82.17" width="536" height="536" transform="translate(149.1 852.69) rotate(-88.76)" fill="none"/>
    </clipPath>
    <clipPath id="clippath-2">
      <rect x="242.2" y="82.17" width="536" height="536" transform="translate(149.1 852.69) rotate(-88.76)" fill="none"/>
    </clipPath>
    <clipPath id="clippath-3">
      <rect x="242.2" y="82.17" width="536" height="536" transform="translate(149.1 852.69) rotate(-88.76)" fill="none"/>
    </clipPath>
    <clipPath id="clippath-4">
      <rect x="229.6" y="67.96" width="561.33" height="560" fill="none"/>
    </clipPath>
  </defs>
  <g clip-path="url(#clippath)">
    <g clip-path="url(#clippath-1)">
      <g clip-path="url(#clippath-2)">
        <g clip-path="url(#clippath-3)">
          <path d="M669.64,136.08c35.84,25.46,65.29,60.83,84.15,101.63,9.27,20.4,16.17,42.14,19.96,64.23,3.69,22.2,4.58,44.88,2.61,67.17-2.08,22.29-7.04,44.41-14.65,65.3-7.82,20.89-18.17,40.65-30.94,58.54-25.43,35.79-59.88,64.22-98.25,81.67-3.66,1.63-4.33-1.91-.99-3.66,36.93-19.83,68.73-49.17,92.02-84.47,11.59-17.7,20.97-36.84,28.02-56.89,6.83-20.05,11.34-41.01,13.19-62.23,1.74-21.23.92-42.73-2.46-63.85-3.49-21.13-9.66-41.78-18.2-61.52-17.3-39.27-44.4-74.38-78.52-100.66-6.19-4.94-2.56-9.99,4.06-5.26ZM249.93,355.07c-.3-35.27,6.55-70.82,20.27-103.44,13.62-32.62,33.8-62.32,58.88-87,25.08-24.68,54.97-44.45,87.48-57.64,32.52-13.3,67.78-20.02,103.01-20.11,5.88.02,6.38-3.71.19-3.84-35.95-.88-72.05,5.18-105.63,18.13-33.58,12.96-64.54,32.81-90.48,58-25.95,25.2-46.78,55.74-60.53,89.43-13.85,33.68-20.3,70.31-19.17,106.56.54,9.52,6.21,9.11,5.98-.09ZM496.43,609.72c-39.54-2.67-78.69-13.78-113.93-32.81-35.13-19.14-66.35-46.1-89.55-79.09-4.15-5.86-8.04-3.59-3.79,2.59,22.74,34.05,53.49,63.14,89.34,83.79,35.85,20.44,76.9,32.22,117.56,32.67,11.1.14,11.34-6.38.37-7.15ZM647.51,523.32c-20.19,15.38-42.54,27.61-66.21,36.3-23.77,8.46-48.64,13.38-73.96,14.54-3.1.25-2.4,2.51.48,2.57,25.48,1.3,51.38-1.99,76.3-9.47,24.82-7.69,48.57-19.79,69.72-35.68,21.05-16.01,39.41-35.7,53.87-58.04s24.72-47.24,30.51-73.08c1.68-8.41-3.74-9.48-5.83-1.73-7.15,24.75-18.02,48.34-32.56,69.3-14.44,21.06-32.13,39.81-52.32,55.3ZM341.02,175.15c-19.29,18.39-35.34,40.06-47.7,63.73-12.15,23.78-20.71,49.57-24.48,76.09-.97,5.54.88,8.68,2.58,9.03,1.92.36,3.89-2.05,4.85-7.38,4.08-25.56,12.51-50.39,24.32-73.21,12.13-22.71,27.52-43.65,46.15-61.31,36.95-35.54,85.48-58.54,136.08-64.07,50.61-5.75,102.99,5.11,146.51,31.48,43.84,25.95,78.61,66.78,97.86,114.11,2.63,6.79,7.67,5.61,5.05-1.6-18.91-48.71-53.96-91.15-98.84-118.51-44.55-27.79-98.62-39.74-151.04-34.15-52.41,5.17-102.98,28.88-141.35,65.77ZM423.03,564c-17.22-8.07-34-17.19-49.66-28.33-7.89-5.41-15.34-11.44-22.67-17.69-7.12-6.46-14.13-13.02-20.48-20.21-5.21-5.78-9.27-1.05-4.06,5.15,12.6,14.8,26.82,28.36,42.58,39.93,15.65,11.66,32.85,21.12,50.95,27.92,4.86,1.92,8.19,1.14,8.97-.45.78-1.69-.88-3.97-5.63-6.32Z" fill="#fff"/>
        </g>
      </g>
    </g>
  </g>
  <path d="M229.02,58.87c-1.47,0-2.81-.24-4-.71-1.18-.47-2.2-1.15-3.04-2.04-.85-.9-1.5-2.01-1.96-3.31-.46-1.32-.69-2.82-.69-4.5s.23-3.17.69-4.48c.46-1.32,1.11-2.42,1.96-3.31.84-.9,1.86-1.59,3.04-2.06,1.19-.47,2.53-.71,4-.71,1.29,0,2.43.17,3.42.5.98.33,1.84.8,2.58,1.4.73.6,1.34,1.31,1.83,2.13.48.82.85,1.73,1.1,2.73h-4.54c-.18-.4-.4-.77-.65-1.1s-.55-.63-.9-.88c-.33-.26-.74-.46-1.21-.6-.47-.14-1.02-.21-1.65-.21-.77,0-1.47.14-2.13.42-.64.28-1.2.7-1.67,1.25-.46.54-.82,1.23-1.08,2.06-.27.82-.4,1.78-.4,2.88s.13,2.06.4,2.9c.26.83.63,1.53,1.08,2.08.47.54,1.03.95,1.67,1.23.65.27,1.36.4,2.13.4.63,0,1.17-.07,1.65-.21.47-.14.88-.33,1.21-.58.34-.25.65-.54.9-.88s.46-.71.65-1.13h4.54c-.25,1-.62,1.91-1.1,2.73-.49.82-1.1,1.53-1.83,2.13-.74.6-1.6,1.06-2.58,1.4-.99.33-2.13.5-3.42.5Z" fill="#fff"/>
  <path d="M249.7,58.87c-1.47,0-2.81-.24-4-.71-1.18-.47-2.2-1.15-3.04-2.04-.85-.9-1.5-2.01-1.96-3.31-.46-1.32-.69-2.82-.69-4.5s.23-3.17.69-4.48c.46-1.32,1.11-2.42,1.96-3.31.84-.9,1.86-1.59,3.04-2.06,1.19-.47,2.53-.71,4-.71s2.8.24,3.98.71c1.19.47,2.21,1.16,3.04,2.06.84.89,1.5,1.99,1.96,3.31.47,1.31.71,2.8.71,4.48s-.24,3.18-.71,4.5c-.46,1.31-1.11,2.41-1.96,3.31-.83.89-1.85,1.57-3.04,2.04-1.18.47-2.51.71-3.98.71ZM249.7,54.92c.76,0,1.46-.13,2.1-.4.65-.28,1.21-.69,1.67-1.23.47-.55.84-1.25,1.1-2.08.26-.83.4-1.8.4-2.9s-.14-2.05-.4-2.88c-.27-.83-.64-1.52-1.1-2.06-.46-.55-1.02-.97-1.67-1.25-.64-.28-1.34-.42-2.1-.42s-1.47.14-2.13.42c-.64.28-1.2.7-1.67,1.25-.46.54-.82,1.23-1.08,2.06-.27.82-.4,1.78-.4,2.88s.13,2.06.4,2.9c.26.83.63,1.53,1.08,2.08.47.54,1.03.95,1.67,1.23.65.27,1.36.4,2.13.4Z" fill="#fff"/>
  <path d="M262.61,38.04h5.71l7.77,14.08h.15v-14.08h4.4v20.54h-5.71l-7.77-14.08h-.15v14.08h-4.4v-20.54Z" fill="#fff"/>
  <path d="M291.78,58.87c-1.13,0-2.18-.14-3.17-.4-.97-.28-1.83-.69-2.56-1.23-.74-.54-1.33-1.21-1.77-2.02-.45-.82-.73-1.76-.85-2.81h4.4c.17.82.59,1.47,1.27,1.94.68.47,1.57.71,2.69.71,1.39,0,2.38-.23,2.96-.69s.88-1.06.88-1.81c0-.5-.17-.9-.5-1.21-.33-.3-.77-.55-1.29-.73-.53-.19-1.14-.35-1.83-.48-.68-.13-1.39-.27-2.1-.44-.72-.17-1.43-.38-2.13-.63-.68-.25-1.29-.59-1.81-1.04-.53-.44-.96-1.01-1.29-1.69-.33-.68-.5-1.54-.5-2.58s.19-1.86.58-2.6c.4-.75.95-1.38,1.65-1.88.69-.51,1.5-.9,2.42-1.15.93-.26,1.92-.4,2.98-.4,1.26,0,2.36.16,3.29.46.94.31,1.73.74,2.38,1.29.65.54,1.16,1.18,1.52,1.92.38.72.63,1.51.75,2.35h-4.42c-.16-.67-.52-1.2-1.08-1.6-.56-.4-1.31-.6-2.27-.6-1.13,0-1.95.22-2.46.67-.52.45-.77.96-.77,1.54,0,.53.17.95.5,1.27.33.32.76.58,1.29.79.53.21,1.13.39,1.81.54.68.14,1.38.3,2.1.48.72.17,1.42.39,2.1.65.69.25,1.3.59,1.83,1.02.53.43.96.97,1.29,1.63.33.64.5,1.45.5,2.42,0,.89-.18,1.72-.54,2.48-.36.77-.9,1.44-1.6,2.02-.71.57-1.58,1.02-2.63,1.33-1.04.32-2.24.48-3.6.48Z" fill="#fff"/>
  <path d="M311.58,58.87c-1.33,0-2.54-.2-3.6-.6-1.06-.42-1.96-1.01-2.71-1.79-.74-.79-1.31-1.75-1.73-2.88-.41-1.13-.6-2.4-.6-3.81v-11.75h4.4v11.75c0,1.7.4,2.97,1.19,3.83.79.86,1.81,1.29,3.06,1.29s2.27-.43,3.06-1.29c.79-.86,1.19-2.14,1.19-3.83v-11.75h4.4v11.75c0,1.42-.21,2.69-.63,3.81-.41,1.13-.98,2.08-1.73,2.88-.74.78-1.65,1.38-2.73,1.79-1.07.4-2.26.6-3.56.6Z" fill="#fff"/>
  <path d="M324.2,38.04h4.4v16.58h9.38v3.96h-13.77v-20.54Z" fill="#fff"/>
  <path d="M342.82,42h-6.17v-3.96h16.73v3.96h-6.17v16.58h-4.4v-16.58Z" fill="#fff"/>
  <path d="M358.95,38.04h5.42l7.33,20.54h-4.54l-1.31-3.81h-8.35l-1.33,3.81h-4.54l7.33-20.54ZM364.41,50.81l-2.67-7.77h-.15l-2.67,7.77h5.48Z" fill="#fff"/>
  <path d="M373.62,38.04h5.71l7.77,14.08h.15v-14.08h4.4v20.54h-5.71l-7.77-14.08h-.15v14.08h-4.4v-20.54Z" fill="#fff"/>
  <path d="M404.55,58.87c-1.47,0-2.81-.24-4-.71-1.18-.47-2.2-1.15-3.04-2.04-.85-.9-1.5-2.01-1.96-3.31-.46-1.32-.69-2.82-.69-4.5s.23-3.17.69-4.48c.46-1.32,1.11-2.42,1.96-3.31.84-.9,1.86-1.59,3.04-2.06,1.19-.47,2.53-.71,4-.71,1.29,0,2.43.17,3.42.5.98.33,1.84.8,2.58,1.4.73.6,1.34,1.31,1.83,2.13.48.82.85,1.73,1.1,2.73h-4.54c-.18-.4-.4-.77-.65-1.1s-.55-.63-.9-.88c-.33-.26-.74-.46-1.21-.6-.47-.14-1.02-.21-1.65-.21-.77,0-1.47.14-2.13.42-.64.28-1.2.7-1.67,1.25-.46.54-.82,1.23-1.08,2.06-.27.82-.4,1.78-.4,2.88s.13,2.06.4,2.9c.26.83.63,1.53,1.08,2.08.47.54,1.03.95,1.67,1.23.65.27,1.36.4,2.13.4.63,0,1.17-.07,1.65-.21.47-.14.88-.33,1.21-.58.34-.25.65-.54.9-.88s.46-.71.65-1.13h4.54c-.25,1-.62,1.91-1.1,2.73-.49.82-1.1,1.53-1.83,2.13-.74.6-1.6,1.06-2.58,1.4-.99.33-2.13.5-3.42.5Z" fill="#fff"/>
  <path d="M420.54,51.54l-7.19-13.5h4.69l4.6,8.96h.15l4.65-8.96h4.69l-7.19,13.5v7.04h-4.4v-7.04Z" fill="#fff"/>
  <path d="M547.13,58.87c-1.47,0-2.81-.24-4-.71-1.18-.47-2.2-1.15-3.04-2.04-.85-.9-1.5-2.01-1.96-3.31-.46-1.32-.69-2.82-.69-4.5s.23-3.17.69-4.48c.46-1.32,1.11-2.42,1.96-3.31.84-.9,1.86-1.59,3.04-2.06,1.19-.47,2.53-.71,4-.71,1.29,0,2.43.17,3.42.5.98.33,1.84.8,2.58,1.4.73.6,1.34,1.31,1.83,2.13.48.82.85,1.73,1.1,2.73h-4.54c-.18-.4-.4-.77-.65-1.1s-.55-.63-.9-.88c-.33-.26-.74-.46-1.21-.6-.47-.14-1.02-.21-1.65-.21-.77,0-1.47.14-2.13.42-.64.28-1.2.7-1.67,1.25-.46.54-.82,1.23-1.08,2.06-.27.82-.4,1.78-.4,2.88s.13,2.06.4,2.9c.26.83.63,1.53,1.08,2.08.47.54,1.03.95,1.67,1.23.65.27,1.36.4,2.13.4s1.42-.1,1.96-.31c.55-.22,1.01-.51,1.38-.88.36-.36.65-.77.85-1.23.22-.46.39-.92.5-1.4h-5.13v-3.52h9.67v1.6c0,1.47-.21,2.81-.63,4-.41,1.2-1,2.22-1.79,3.06-.79.83-1.76,1.48-2.9,1.94-1.14.46-2.45.69-3.92.69Z" fill="#fff"/>
  <path d="M559.6,38.04h13.92v3.96h-9.52v4.42h8.94v3.67h-8.94v4.54h9.81v3.96h-14.21v-20.54Z" fill="#fff"/>
  <path d="M577.2,38.04h5.71l7.77,14.08h.15v-14.08h4.4v20.54h-5.71l-7.77-14.08h-.15v14.08h-4.4v-20.54Z" fill="#fff"/>
  <path d="M610.33,38.04h5.42l7.33,20.54h-4.54l-1.31-3.81h-8.35l-1.33,3.81h-4.54l7.33-20.54ZM615.79,50.81l-2.67-7.77h-.15l-2.67,7.77h5.48Z" fill="#fff"/>
  <path d="M625,38.04h4.4v20.54h-4.4v-20.54Z" fill="#fff"/>
  <path d="M646.69,37.17h4.25l-8.5,27.29h-4.25l8.5-27.29Z" fill="#fff"/>
  <path d="M661.51,58.87c-1.33,0-2.54-.2-3.6-.6-1.06-.42-1.96-1.01-2.71-1.79-.74-.79-1.31-1.75-1.73-2.88-.41-1.13-.6-2.4-.6-3.81v-11.75h4.4v11.75c0,1.7.4,2.97,1.19,3.83.79.86,1.81,1.29,3.06,1.29s2.27-.43,3.06-1.29c.79-.86,1.19-2.14,1.19-3.83v-11.75h4.4v11.75c0,1.42-.21,2.69-.63,3.81-.41,1.13-.98,2.08-1.73,2.88-.74.78-1.65,1.38-2.73,1.79-1.07.4-2.26.6-3.56.6Z" fill="#fff"/>
  <path d="M682.92,58.87c-1.47,0-2.81-.24-4-.71-1.18-.47-2.2-1.15-3.04-2.04-.85-.9-1.5-2.01-1.96-3.31-.46-1.32-.69-2.82-.69-4.5s.23-3.17.69-4.48c.46-1.32,1.11-2.42,1.96-3.31.84-.9,1.86-1.59,3.04-2.06,1.19-.47,2.53-.71,4-.71,1.29,0,2.43.17,3.42.5.98.33,1.84.8,2.58,1.4.73.6,1.34,1.31,1.83,2.13.48.82.85,1.73,1.1,2.73h-4.54c-.18-.4-.4-.77-.65-1.1s-.55-.63-.9-.88c-.33-.26-.74-.46-1.21-.6-.47-.14-1.02-.21-1.65-.21-.77,0-1.47.14-2.13.42-.64.28-1.2.7-1.67,1.25-.46.54-.82,1.23-1.08,2.06-.27.82-.4,1.78-.4,2.88s.13,2.06.4,2.9c.26.83.63,1.53,1.08,2.08.47.54,1.03.95,1.67,1.23.65.27,1.36.4,2.13.4s1.42-.1,1.96-.31c.55-.22,1.01-.51,1.38-.88.36-.36.65-.77.85-1.23.22-.46.39-.92.5-1.4h-5.13v-3.52h9.67v1.6c0,1.47-.21,2.81-.63,4-.41,1.2-1,2.22-1.79,3.06-.79.83-1.76,1.48-2.9,1.94-1.14.46-2.45.69-3.92.69Z" fill="#fff"/>
  <path d="M704.18,58.87c-1.47,0-2.81-.24-4-.71-1.18-.47-2.2-1.15-3.04-2.04-.85-.9-1.5-2.01-1.96-3.31-.46-1.32-.69-2.82-.69-4.5s.23-3.17.69-4.48c.46-1.32,1.11-2.42,1.96-3.31.84-.9,1.86-1.59,3.04-2.06,1.19-.47,2.53-.71,4-.71,1.29,0,2.43.17,3.42.5.98.33,1.84.8,2.58,1.4.73.6,1.34,1.31,1.83,2.13.48.82.85,1.73,1.1,2.73h-4.54c-.18-.4-.4-.77-.65-1.1s-.55-.63-.9-.88c-.33-.26-.74-.46-1.21-.6-.47-.14-1.02-.21-1.65-.21-.77,0-1.47.14-2.13.42-.64.28-1.2.7-1.67,1.25-.46.54-.82,1.23-1.08,2.06-.27.82-.4,1.78-.4,2.88s.13,2.06.4,2.9c.26.83.63,1.53,1.08,2.08.47.54,1.03.95,1.67,1.23.65.27,1.36.4,2.13.4.63,0,1.17-.07,1.65-.21.47-.14.88-.33,1.21-.58.34-.25.65-.54.9-.88s.46-.71.65-1.13h4.54c-.25,1-.62,1.91-1.1,2.73-.49.82-1.1,1.53-1.83,2.13-.74.6-1.6,1.06-2.58,1.4-.99.33-2.13.5-3.42.5Z" fill="#fff"/>
  <path d="M731.6,58.87c-1.47,0-2.81-.24-4-.71-1.18-.47-2.2-1.15-3.04-2.04-.85-.9-1.5-2.01-1.96-3.31-.46-1.32-.69-2.82-.69-4.5s.23-3.17.69-4.48c.46-1.32,1.11-2.42,1.96-3.31.84-.9,1.86-1.59,3.04-2.06,1.19-.47,2.53-.71,4-.71,1.29,0,2.43.17,3.42.5.98.33,1.84.8,2.58,1.4.73.6,1.34,1.31,1.83,2.13.48.82.85,1.73,1.1,2.73h-4.54c-.18-.4-.4-.77-.65-1.1s-.55-.63-.9-.88c-.33-.26-.74-.46-1.21-.6-.47-.14-1.02-.21-1.65-.21-.77,0-1.47.14-2.13.42-.64.28-1.2.7-1.67,1.25-.46.54-.82,1.23-1.08,2.06-.27.82-.4,1.78-.4,2.88s.13,2.06.4,2.9c.26.83.63,1.53,1.08,2.08.47.54,1.03.95,1.67,1.23.65.27,1.36.4,2.13.4.63,0,1.17-.07,1.65-.21.47-.14.88-.33,1.21-.58.34-.25.65-.54.9-.88s.46-.71.65-1.13h4.54c-.25,1-.62,1.91-1.1,2.73-.49.82-1.1,1.53-1.83,2.13-.74.6-1.6,1.06-2.58,1.4-.99.33-2.13.5-3.42.5Z" fill="#fff"/>
  <path d="M752.28,58.87c-1.47,0-2.81-.24-4-.71-1.18-.47-2.2-1.15-3.04-2.04-.85-.9-1.5-2.01-1.96-3.31-.46-1.32-.69-2.82-.69-4.5s.23-3.17.69-4.48c.46-1.32,1.11-2.42,1.96-3.31.84-.9,1.86-1.59,3.04-2.06,1.19-.47,2.53-.71,4-.71s2.8.24,3.98.71c1.19.47,2.21,1.16,3.04,2.06.84.89,1.5,1.99,1.96,3.31.47,1.31.71,2.8.71,4.48s-.24,3.18-.71,4.5c-.46,1.31-1.11,2.41-1.96,3.31-.83.89-1.85,1.57-3.04,2.04-1.18.47-2.51.71-3.98.71ZM752.28,54.92c.76,0,1.46-.13,2.1-.4.65-.28,1.21-.69,1.67-1.23.47-.55.84-1.25,1.1-2.08.26-.83.4-1.8.4-2.9s-.14-2.05-.4-2.88c-.27-.83-.64-1.52-1.1-2.06-.46-.55-1.02-.97-1.67-1.25-.64-.28-1.34-.42-2.1-.42s-1.47.14-2.13.42c-.64.28-1.2.7-1.67,1.25-.46.54-.82,1.23-1.08,2.06-.27.82-.4,1.78-.4,2.88s.13,2.06.4,2.9c.26.83.63,1.53,1.08,2.08.47.54,1.03.95,1.67,1.23.65.27,1.36.4,2.13.4Z" fill="#fff"/>
  <path d="M765.19,38.04h5.71l7.77,14.08h.15v-14.08h4.4v20.54h-5.71l-7.77-14.08h-.15v14.08h-4.4v-20.54Z" fill="#fff"/>
  <path d="M791.88,42h-6.17v-3.96h16.73v3.96h-6.17v16.58h-4.4v-16.58Z" fill="#fff"/>
  <path d="M804.93,38.04h13.92v3.96h-9.52v4.42h8.94v3.67h-8.94v4.54h9.81v3.96h-14.21v-20.54Z" fill="#fff"/>
  <path d="M822.53,38.04h5.71l7.77,14.08h.15v-14.08h4.4v20.54h-5.71l-7.77-14.08h-.15v14.08h-4.4v-20.54Z" fill="#fff"/>
  <path d="M849.21,42h-6.17v-3.96h16.73v3.96h-6.17v16.58h-4.4v-16.58Z" fill="#fff"/>
  <g clip-path="url(#clippath-4)">
    <g>
      <path d="M465.94,152.31l9.56-1.63c2.58-.44,4.56-.13,5.94.94,1.38,1.07,2.3,3.03,2.79,5.88l.27,1.56c.57,3.36-.29,5.58-2.58,6.67,1.54.13,2.73.83,3.56,2.13.84,1.29,1.47,3.09,1.88,5.4.64,3.75.55,6.69-.25,8.81-.79,2.13-2.66,3.44-5.58,3.94l-9.56,1.63-6.02-35.31ZM476.54,164.17c.61-.09.98-.39,1.13-.88.14-.5.14-1.16,0-1.98l-.6-3.54c-.2-1.14-.8-1.61-1.81-1.44l-1.48.25,1.33,7.83,1.44-.25ZM478.5,180.13c1.83-.3,2.6-1.33,2.31-3.08l-.75-4.4c-.18-1.07-.48-1.85-.9-2.35s-1.02-.68-1.81-.54l-1.31.23,1.75,10.23.71-.08Z" fill="#fff"/>
      <path d="M488.03,148.9l10.98-.6c1.75-.08,3.13.24,4.13.98,1,.72,1.7,1.79,2.1,3.21.42,1.41.69,3.22.81,5.44.11,2.03-.07,3.64-.54,4.81-.46,1.17-1.33,2.01-2.6,2.52,1.08.16,1.89.66,2.42,1.5.54.83.85,1.99.94,3.46l.65,13.52-7,.38-.75-13.98c-.06-1-.29-1.63-.69-1.88-.41-.26-1.12-.36-2.15-.31l.88,16.31-7.23.4-1.94-35.75ZM497.72,161.65c1-.05,1.44-1.17,1.33-3.33-.06-.94-.14-1.65-.25-2.13-.1-.47-.27-.79-.5-.96-.24-.17-.56-.23-.98-.21l-1.67.08.35,6.63,1.71-.08Z" fill="#fff"/>
      <path d="M507.13,183.68l5.65-35.54,12.1.75,1.21,35.96-6.77-.42-.15-5.81-4.33-.25-.77,5.73-6.94-.42ZM515.73,172.68l3.25.21-.46-18.29-.33-.02-2.46,18.1Z" fill="#fff"/>
      <path d="M526.51,184.94l6.4-35.23,7.25,1.31.19,17.44,3.06-16.85,6.79,1.23-6.4,35.23-6.88-1.25-.35-18.27-3.19,17.63-6.88-1.23Z" fill="#fff"/>
      <path d="M555.69,154.17l9.44,2.92c2.44.75,4.06,1.99,4.85,3.73.8,1.72.81,3.91.02,6.56l-4.83,16.08c-1.02,3.36-2.39,5.71-4.1,7.04-1.71,1.33-3.95,1.57-6.71.73l-9.19-2.83,10.52-34.23ZM555.1,184.83c1.25.38,2.06-.05,2.44-1.27l5.44-17.65c.23-.78.34-1.38.33-1.79,0-.42-.14-.73-.42-.96-.28-.23-.74-.46-1.4-.67l-.77-.23-6.83,22.19,1.21.38Z" fill="#fff"/>
      <path d="M632.99,245.97l31.63-17.17,6.77,10.06-27.77,22.85-3.81-5.63,4.52-3.65-2.42-3.6-5.02,2.9-3.9-5.77ZM646.95,246.09l1.83,2.69,14.21-11.5-.19-.27-15.85,9.08Z" fill="#fff"/>
      <path d="M647.33,269.69c-1.2-2.32-1.43-4.56-.71-6.71.73-2.14,2.38-3.86,4.92-5.19l14.67-7.6c3.15-1.64,5.85-2.24,8.1-1.81,2.25.42,4.07,1.97,5.48,4.67,1.21,2.33,1.54,4.55,1,6.65-.53,2.09-2,3.77-4.42,5.02l-5.48,2.85-3.27-6.31,4.69-2.44c.92-.47,1.48-.91,1.71-1.31.23-.4.21-.88-.06-1.42-.29-.57-.7-.85-1.21-.85-.5-.01-1.14.18-1.9.58l-15.96,8.27c-.85.43-1.41.86-1.67,1.31-.25.44-.24.92.02,1.42.51.98,1.57,1.06,3.19.23l5.73-2.98,3.31,6.4-6,3.13c-5.32,2.75-9.37,1.45-12.15-3.9Z" fill="#fff"/>
      <path d="M655.58,287.66c-.56-.93-.85-1.46-.9-1.58-1.03-2.7-1.04-5.04-.02-7.04,1.01-1.99,3.01-3.54,6-4.67l16.19-6.15c2.88-1.08,5.32-1.2,7.35-.35,2.04.83,3.57,2.59,4.58,5.27,1.01,2.68,1.04,5.01.08,7-.96,1.98-2.88,3.52-5.75,4.6l-16.19,6.15c-2.77,1.04-5.19,1.24-7.27.6l-.73,3.56-4.83-.75,1.48-6.65ZM660.85,283.74c.23.65.69.95,1.38.9.69-.06,1.53-.27,2.52-.65l15.69-5.94c.86-.33,1.49-.71,1.9-1.13.42-.4.51-.9.29-1.5-.41-1.05-1.52-1.23-3.33-.54l-15.83,6c-.95.34-1.68.73-2.21,1.17-.53.44-.66,1.01-.4,1.69Z" fill="#fff"/>
      <path d="M660.28,303.95c-.71-2.86-.43-5.2.83-7,1.28-1.79,3.51-3.08,6.69-3.88l25.44-6.4,1.69,6.75-25.15,6.33c-1.11.28-1.95.59-2.52.96-.56.38-.75.92-.58,1.63.18.69.59,1.07,1.25,1.13.67.07,1.57-.04,2.71-.31l25.15-6.33,1.69,6.75-25.44,6.4c-3.18.79-5.76.69-7.73-.29-1.96-.97-3.3-2.89-4.02-5.73Z" fill="#fff"/>
      <path d="M662.77,313.49l35.35-5.77,1.1,6.83-35.35,5.77-1.1-6.83Z" fill="#fff"/>
      <path d="M664.6,330.4c-.25-3.24.36-5.64,1.85-7.21,1.48-1.56,4.02-2.48,7.6-2.77l3.48-.27.56,7.02-4.44.35c-1.78.14-2.62.78-2.52,1.92.04.63.26,1.05.65,1.27.4.22,1.05.3,1.94.23,1.15-.1,2.09-.31,2.83-.65.75-.33,1.36-.74,1.83-1.21.48-.46,1.23-1.29,2.23-2.48l2.81-3.33c2.15-2.57,4.64-3.96,7.46-4.19,3.04-.23,5.42.28,7.13,1.54,1.71,1.28,2.67,3.26,2.9,5.96.25,3.21-.43,5.58-2.02,7.13-1.6,1.54-4.21,2.46-7.83,2.75l-.58-7.27,2.46-.23c.47-.04.83-.21,1.08-.5.26-.28.38-.65.35-1.1-.06-.56-.25-.97-.58-1.23-.32-.25-.74-.35-1.27-.31-1.17.09-2.32.86-3.46,2.29l-3.67,4.46c-.88,1.05-1.71,1.93-2.5,2.63-.78.69-1.73,1.28-2.85,1.75-1.13.48-2.48.79-4.06.92-3.52.29-6.23-.14-8.15-1.29-1.92-1.14-2.99-3.2-3.23-6.17Z" fill="#fff"/>
      <path d="M665.41,339.51l35.81.13-.02,6.92-35.81-.13.02-6.92Z" fill="#fff"/>
      <path d="M664.45,356.32c.24-2.6,1.23-4.61,3-6.04,1.78-1.42,4.09-2,6.94-1.75l16.46,1.44c3.54.32,6.15,1.26,7.81,2.83,1.68,1.57,2.39,3.86,2.13,6.88-.24,2.63-1.15,4.67-2.73,6.15-1.57,1.48-3.71,2.11-6.42,1.88l-6.15-.54.63-7.1,5.27.48c1.03.08,1.74.01,2.15-.21.42-.21.65-.62.71-1.23.05-.64-.14-1.1-.56-1.38-.42-.28-1.06-.45-1.92-.52l-17.92-1.56c-.93-.08-1.63-.01-2.08.23-.46.23-.71.63-.75,1.19-.1,1.11.75,1.75,2.54,1.92l6.44.56-.63,7.19-6.73-.6c-5.97-.52-8.7-3.78-8.19-9.79Z" fill="#fff"/>
      <path d="M663.67,366.1l35.29,6.1-1.19,6.81-35.29-6.1,1.19-6.81Z" fill="#fff"/>
      <path d="M659.87,382.7c.74-2.79,2.15-4.69,4.23-5.69s4.67-1.1,7.77-.29l16.5,4.33c2.97.79,5.03,2.11,6.17,3.96,1.14,1.84,1.34,4.17.6,6.96-.74,2.79-2.06,4.71-3.96,5.77-1.89,1.05-4.32,1.19-7.29.4l-16.5-4.33c-3.13-.82-5.34-2.18-6.65-4.08-1.32-1.89-1.61-4.23-.88-7.02ZM666.23,384.36c-.16.61,0,1.09.48,1.46.48.36,1.21.67,2.19.92l16.94,4.46c.76.19,1.4.25,1.92.17.51-.07.85-.41,1.02-1.02.3-1.16-.41-1.96-2.15-2.42l-16.92-4.46c-.99-.25-1.77-.33-2.35-.23-.57.11-.95.48-1.13,1.13ZM697.1,387.49l4.4,1.17,1.85,10.46-6.85-1.79.6-9.83Z" fill="#fff"/>
      <path d="M657.6,392.39l33.31,13.13-2.71,6.85-17.15-3.23,15.94,6.29-2.52,6.44-33.31-13.13,2.56-6.52,17.98,3.23-16.67-6.56,2.56-6.5Z" fill="#fff"/>
      <path d="M610.17,507.29l-9.56,5.42c-1.53.88-2.91,1.2-4.13.98-1.22-.21-2.33-.85-3.31-1.94-1-1.07-2.05-2.57-3.15-4.5-1-1.77-1.55-3.28-1.65-4.54-.11-1.25.29-2.39,1.19-3.42-1.04.33-1.98.24-2.83-.27-.84-.5-1.64-1.39-2.38-2.67l-6.63-11.81,6.08-3.46,6.92,12.17c.5.88.99,1.33,1.46,1.38.47.05,1.16-.17,2.04-.67l-8.06-14.21,6.31-3.58,17.69,31.13ZM595.8,500.23c-.86.5-.76,1.69.31,3.56.47.82.85,1.41,1.15,1.77.3.38.59.58.88.63.29.05.61-.02.98-.23l1.46-.83-3.27-5.75-1.5.85Z" fill="#fff"/>
      <path d="M576.51,485.04l14.27,32.83-13.15,5.73-2.75-6.33,6.46-2.81-2.77-6.38-6.19,2.69-2.71-6.21,6.19-2.69-3.27-7.54-6.88,2.98-2.77-6.38,13.56-5.9Z" fill="#fff"/>
      <path d="M559.14,492.18l8.92,27.52,4.04-1.31,2.13,6.54-14.9,4.83-2.13-6.54,4.04-1.31-8.92-27.52,6.81-2.21Z" fill="#fff"/>
      <path d="M547.74,495.79l7.69,34.98-14,3.08-1.5-6.75,6.88-1.52-1.48-6.81-6.6,1.46-1.46-6.6,6.6-1.46-1.75-8.02-7.33,1.63-1.5-6.79,14.46-3.19Z" fill="#fff"/>
      <path d="M532.55,499.14l3.81,35.6-7.33.79-5.08-16.69,1.81,17.04-6.88.73-3.81-35.6,6.96-.75,5.48,17.44-1.92-17.81,6.96-.75Z" fill="#fff"/>
      <path d="M505.32,500.64c2.61.03,4.7.86,6.25,2.52,1.56,1.65,2.32,3.91,2.29,6.77l-.17,16.52c-.03,3.55-.76,6.23-2.19,8.02-1.44,1.79-3.68,2.67-6.71,2.65-2.64-.03-4.76-.77-6.35-2.23-1.59-1.46-2.38-3.55-2.35-6.27l.06-6.17,7.13.08-.06,5.29c0,1.03.13,1.73.38,2.13.24.39.66.58,1.27.58.64.01,1.08-.2,1.33-.65.24-.45.35-1.1.35-1.96l.19-17.98c0-.95-.13-1.64-.4-2.06-.28-.43-.69-.66-1.25-.67-1.11,0-1.67.9-1.69,2.71l-.06,6.46-7.21-.08.06-6.75c.06-6,3.1-8.97,9.13-8.92Z" fill="#fff"/>
      <path d="M495.5,500.61l-3.35,35.65-6.88-.65,3.35-35.65,6.88.65Z" fill="#fff"/>
      <path d="M478.68,498.11c2.83.52,4.83,1.77,6,3.77,1.17,2.01,1.46,4.59.88,7.73l-3.04,16.79c-.54,3.04-1.69,5.19-3.46,6.46-1.76,1.28-4.06,1.66-6.9,1.15-2.84-.52-4.86-1.68-6.04-3.48-1.19-1.81-1.52-4.23-.98-7.27l3.04-16.79c.58-3.17,1.77-5.48,3.56-6.94,1.78-1.46,4.09-1.93,6.94-1.42ZM477.49,504.59c-.63-.11-1.09.08-1.42.58-.32.51-.57,1.26-.75,2.25l-3.13,17.23c-.14.76-.15,1.4-.02,1.92.13.53.5.84,1.13.96,1.17.21,1.91-.58,2.23-2.35l3.13-17.19c.18-1.02.2-1.81.04-2.38-.15-.56-.55-.9-1.21-1.02ZM476.78,535.63l-.81,4.46-10.29,2.67,1.27-6.98,9.83-.15Z" fill="#fff"/>
      <path d="M468.83,496.61l-10.5,34.23-7.04-2.17,1.88-17.33-5.02,16.38-6.63-2.04,10.5-34.23,6.71,2.06-1.83,18.17,5.25-17.13,6.69,2.06Z" fill="#fff"/>
      <path d="M380.21,438.81l-30.29,19.08-5.81-9.25,16.88-14.17-20.06,9.1-5.88-9.33,30.29-19.08,3.48,5.54-21.83,13.77,24.04-10.27,3.42,5.44-19.5,17.46,21.83-13.77,3.44,5.48Z" fill="#fff"/>
      <path d="M362.1,406.19c1.17,2.66,1.24,5.02.23,7.1-1.01,2.07-2.98,3.74-5.9,5.02l-15.63,6.88c-2.82,1.25-5.25,1.51-7.29.77-2.04-.74-3.65-2.43-4.81-5.08-1.15-2.64-1.31-4.96-.48-6.96.83-2.01,2.66-3.65,5.48-4.9l15.63-6.88c2.95-1.29,5.52-1.59,7.73-.92,2.21.67,3.89,2.32,5.04,4.96ZM356.06,408.83c-.25-.58-.67-.86-1.27-.83-.59.02-1.35.22-2.27.63l-16.04,7.06c-.71.3-1.24.65-1.6,1.02-.36.39-.41.88-.15,1.46.47,1.09,1.54,1.28,3.19.56l16-7.04c.95-.42,1.61-.84,2-1.27.38-.44.43-.97.15-1.58Z" fill="#fff"/>
      <path d="M357.85,397.17l-34.25,10.46-2.17-7.04,15.44-8.15-16.4,5-2.02-6.63,34.25-10.46,2.04,6.69-16.08,8.67,17.15-5.23,2.04,6.69Z" fill="#fff"/>
      <path d="M352.44,378.84l-35.19,6.67-2.67-14.08,6.79-1.29,1.31,6.92,6.83-1.29-1.25-6.63,6.67-1.27,1.25,6.63,8.06-1.52-1.4-7.35,6.83-1.29,2.75,14.52Z" fill="#fff"/>
      <path d="M349.34,360.32l-28.81,2.6.38,4.23-6.85.63-1.4-15.6,6.85-.63.38,4.23,28.81-2.6.65,7.15Z" fill="#fff"/>
      <path d="M348.44,348.4l-35.81.54-.1-6.92,35.81-.54.1,6.92Z" fill="#fff"/>
      <path d="M348.19,340.66l-6.48-.4-22.19-9.54-.46,7.35-6.58-.4.92-14.94,6.25.38,22.44,9.79.48-8,6.56.4-.94,15.35Z" fill="#fff"/>
      <path d="M349.02,325.24l-34.73-9.4,2.04-11.96,35.88,2.63-1.15,6.71-5.79-.5-.73,4.27,5.65,1.4-1.17,6.85ZM339.02,315.51l.54-3.21-18.25-1.48-.04.33,17.75,4.35Z" fill="#fff"/>
      <path d="M355.02,298.17c-.72,2.52-2.09,4.29-4.1,5.33s-4.4,1.17-7.15.38l-15.85-4.63c-3.42-1-5.79-2.43-7.13-4.29-1.34-1.86-1.59-4.25-.75-7.17.75-2.53,2.05-4.36,3.9-5.5,1.83-1.14,4.06-1.32,6.67-.56l5.92,1.71-2,6.85-5.06-1.48c-1-.28-1.71-.35-2.15-.23-.44.13-.76.48-.94,1.06-.17.63-.07,1.11.29,1.46.35.35.94.64,1.77.88l17.25,5.04c.91.27,1.6.33,2.1.19.49-.15.81-.5.96-1.04.32-1.05-.39-1.83-2.13-2.33l-6.19-1.81,2.02-6.94,6.48,1.9c5.75,1.67,7.78,5.4,6.08,11.19Z" fill="#fff"/>
      <path d="M357.72,288.74l-33.42-12.88,2.48-6.46,33.42,12.88-2.48,6.46Z" fill="#fff"/>
      <path d="M364.67,273.21c-1.27,2.6-3.02,4.19-5.25,4.77-2.25.57-4.81.16-7.69-1.25l-15.33-7.48c-2.78-1.34-4.54-3.03-5.29-5.06-.75-2.04-.49-4.36.77-6.96,1.27-2.59,2.93-4.22,5-4.88,2.07-.67,4.49-.32,7.27,1.02l15.33,7.48c2.9,1.42,4.8,3.18,5.71,5.29.92,2.11.74,4.47-.52,7.06ZM358.75,270.33c.28-.57.22-1.07-.19-1.52-.4-.44-1.05-.89-1.94-1.33l-15.75-7.67c-.71-.34-1.32-.53-1.85-.54-.53-.03-.93.24-1.21.81-.53,1.08.02,2.02,1.65,2.79l15.71,7.67c.93.45,1.69.68,2.27.69.58,0,1.02-.3,1.31-.9ZM329.09,261.25l-4.08-1.98.23-10.65,6.35,3.1-2.5,9.52Z" fill="#fff"/>
      <path d="M368.79,264.14l-30.13-19.38,4-6.21,16.19,6.5-14.42-9.27,3.75-5.81,30.13,19.38-3.79,5.9-17-6.69,15.06,9.69-3.79,5.9Z" fill="#fff"/>
    </g>
  </g>
  <path d="M792.7,175.94h8.5c1.05,0,2.03.18,2.92.54.89.35,1.65.83,2.27,1.46.63.61,1.11,1.35,1.46,2.23.36.86.54,1.8.54,2.81s-.18,1.99-.54,2.85c-.35.86-.83,1.6-1.46,2.23-.63.61-1.39,1.09-2.27,1.44-.89.35-1.86.52-2.92.52h-4.1v6.46h-4.4v-20.54ZM800.76,186.06c1.03,0,1.82-.27,2.38-.81.57-.55.85-1.31.85-2.27s-.29-1.71-.85-2.25c-.56-.55-1.35-.83-2.38-.83h-3.67v6.17h3.67Z" fill="#fff"/>
  <path d="M815.57,175.94h5.42l7.33,20.54h-4.54l-1.31-3.81h-8.35l-1.33,3.81h-4.54l7.33-20.54ZM821.03,188.71l-2.67-7.77h-.15l-2.67,7.77h5.48Z" fill="#fff"/>
  <path d="M830.24,175.94h4.4v20.54h-4.4v-20.54Z" fill="#fff"/>
  <path d="M838.75,175.94h7.92c1.43,0,2.72.24,3.88.71,1.15.47,2.14,1.16,2.96,2.04.82.88,1.44,1.95,1.88,3.23.44,1.27.67,2.7.67,4.29s-.22,3.08-.67,4.35c-.43,1.27-1.06,2.34-1.88,3.23-.82.88-1.81,1.54-2.96,2-1.16.46-2.45.69-3.88.69h-7.92v-20.54ZM846.52,192.52c.69,0,1.34-.13,1.96-.38.63-.26,1.17-.66,1.65-1.19.47-.53.84-1.19,1.1-1.98.28-.79.42-1.71.42-2.77s-.14-1.98-.42-2.77c-.27-.79-.64-1.45-1.1-1.98-.47-.53-1.02-.92-1.65-1.17-.61-.26-1.27-.4-1.96-.4h-3.38v12.63h3.38Z" fill="#fff"/>
  <path d="M866.02,175.94h6.44l4.85,14.23h.15l4.83-14.23h6.46v20.54h-4.4v-14.52h-.15l-5,14.52h-3.67l-4.98-14.52h-.15v14.52h-4.4v-20.54Z" fill="#fff"/>
  <path d="M892.86,175.94h13.92v3.96h-9.52v4.42h8.94v3.67h-8.94v4.54h9.81v3.96h-14.21v-20.54Z" fill="#fff"/>
  <path d="M910.45,175.94h7.92c1.43,0,2.72.24,3.88.71,1.15.47,2.14,1.16,2.96,2.04.82.88,1.44,1.95,1.88,3.23.44,1.27.67,2.7.67,4.29s-.22,3.08-.67,4.35c-.43,1.27-1.06,2.34-1.88,3.23-.82.88-1.81,1.54-2.96,2-1.16.46-2.45.69-3.88.69h-7.92v-20.54ZM918.22,192.52c.69,0,1.34-.13,1.96-.38.63-.26,1.17-.66,1.65-1.19.47-.53.84-1.19,1.1-1.98.28-.79.42-1.71.42-2.77s-.14-1.98-.42-2.77c-.27-.79-.64-1.45-1.1-1.98-.47-.53-1.02-.92-1.65-1.17-.61-.26-1.27-.4-1.96-.4h-3.38v12.63h3.38Z" fill="#fff"/>
  <path d="M930.98,175.94h4.4v20.54h-4.4v-20.54Z" fill="#fff"/>
  <path d="M944.61,175.94h5.42l7.33,20.54h-4.54l-1.31-3.81h-8.35l-1.33,3.81h-4.54l7.33-20.54ZM950.07,188.71l-2.67-7.77h-.15l-2.67,7.77h5.48Z" fill="#fff"/>
  <path d="M813.87,334.82h6.44l4.85,14.23h.15l4.83-14.23h6.46v20.54h-4.4v-14.52h-.15l-5,14.52h-3.67l-4.98-14.52h-.15v14.52h-4.4v-20.54Z" fill="#fff"/>
  <path d="M845.83,334.82h5.42l7.33,20.54h-4.54l-1.31-3.81h-8.35l-1.33,3.81h-4.54l7.33-20.54ZM851.29,347.59l-2.67-7.77h-.15l-2.67,7.77h5.48Z" fill="#fff"/>
  <path d="M860.51,334.82h8.79c1.01,0,1.94.17,2.79.5.86.32,1.59.77,2.19,1.35.61.58,1.08,1.29,1.42,2.13s.5,1.76.5,2.77c0,1.29-.23,2.35-.69,3.19-.45.83-.93,1.49-1.46,1.98-.63.57-1.33,1-2.1,1.29l4.98,7.33h-4.98l-4.71-7.04h-2.33v7.04h-4.4v-20.54ZM869.01,344.36c.82,0,1.48-.24,2-.73.53-.48.79-1.17.79-2.06s-.27-1.55-.79-2.04c-.52-.5-1.18-.75-2-.75h-4.1v5.58h4.1Z" fill="#fff"/>
  <path d="M883.67,338.78h-6.17v-3.96h16.73v3.96h-6.17v16.58h-4.4v-16.58Z" fill="#fff"/>
  <path d="M896.73,334.82h13.92v3.96h-9.52v4.42h8.94v3.67h-8.94v4.54h9.81v3.96h-14.21v-20.54Z" fill="#fff"/>
  <path d="M923.11,355.65c-1.47,0-2.81-.24-4-.71-1.18-.47-2.2-1.15-3.04-2.04-.85-.9-1.5-2.01-1.96-3.31-.46-1.32-.69-2.82-.69-4.5s.23-3.17.69-4.48c.46-1.32,1.11-2.42,1.96-3.31.84-.9,1.86-1.59,3.04-2.06,1.19-.47,2.53-.71,4-.71,1.29,0,2.43.17,3.42.5.98.33,1.84.8,2.58,1.4.73.6,1.34,1.31,1.83,2.13.48.82.85,1.73,1.1,2.73h-4.54c-.18-.4-.4-.77-.65-1.1s-.55-.63-.9-.88c-.33-.26-.74-.46-1.21-.6-.47-.14-1.02-.21-1.65-.21-.77,0-1.47.14-2.13.42-.64.28-1.2.7-1.67,1.25-.46.54-.82,1.23-1.08,2.06-.27.82-.4,1.78-.4,2.88s.13,2.06.4,2.9c.26.83.63,1.53,1.08,2.08.47.54,1.03.95,1.67,1.23.65.27,1.36.4,2.13.4.63,0,1.17-.07,1.65-.21.47-.14.88-.33,1.21-.58.34-.25.65-.54.9-.88s.46-.71.65-1.13h4.54c-.25,1-.62,1.91-1.1,2.73-.49.82-1.1,1.53-1.83,2.13-.74.6-1.6,1.06-2.58,1.4-.99.33-2.13.5-3.42.5Z" fill="#fff"/>
  <path d="M935,334.82h4.4v8.23h8.21v-8.23h4.4v20.54h-4.4v-8.35h-8.21v8.35h-4.4v-20.54Z" fill="#fff"/>
  <path d="M797.83,493.7h5.42l7.33,20.54h-4.54l-1.31-3.81h-8.35l-1.33,3.81h-4.54l7.33-20.54ZM803.28,506.48l-2.67-7.77h-.15l-2.67,7.77h5.48Z" fill="#fff"/>
  <path d="M812.5,493.7h4.4v20.54h-4.4v-20.54Z" fill="#fff"/>
  <path d="M831.99,493.7h5.42l7.33,20.54h-4.54l-1.31-3.81h-8.35l-1.33,3.81h-4.54l7.33-20.54ZM837.45,506.48l-2.67-7.77h-.15l-2.67,7.77h5.48Z" fill="#fff"/>
  <path d="M846.67,493.7h5.71l7.77,14.08h.15v-14.08h4.4v20.54h-5.71l-7.77-14.08h-.15v14.08h-4.4v-20.54Z" fill="#fff"/>
  <path d="M873.93,493.7h5.42l7.33,20.54h-4.54l-1.31-3.81h-8.35l-1.33,3.81h-4.54l7.33-20.54ZM879.39,506.48l-2.67-7.77h-.15l-2.67,7.77h5.48Z" fill="#fff"/>
  <path d="M888.6,493.7h4.4v16.58h9.38v3.96h-13.77v-20.54Z" fill="#fff"/>
  <path d="M907.37,507.2l-7.19-13.5h4.69l4.6,8.96h.15l4.65-8.96h4.69l-7.19,13.5v7.04h-4.4v-7.04Z" fill="#fff"/>
  <path d="M925.11,497.66h-6.17v-3.96h16.73v3.96h-6.17v16.58h-4.4v-16.58Z" fill="#fff"/>
  <path d="M938.17,493.7h4.4v20.54h-4.4v-20.54Z" fill="#fff"/>
  <path d="M955.47,514.54c-1.47,0-2.81-.24-4-.71-1.18-.47-2.2-1.15-3.04-2.04-.85-.9-1.5-2.01-1.96-3.31-.46-1.32-.69-2.82-.69-4.5s.23-3.17.69-4.48c.46-1.32,1.11-2.42,1.96-3.31.84-.9,1.86-1.59,3.04-2.06,1.19-.47,2.53-.71,4-.71,1.29,0,2.43.17,3.42.5.98.33,1.84.8,2.58,1.4.73.6,1.34,1.31,1.83,2.13.48.82.85,1.73,1.1,2.73h-4.54c-.18-.4-.4-.77-.65-1.1s-.55-.63-.9-.88c-.33-.26-.74-.46-1.21-.6-.47-.14-1.02-.21-1.65-.21-.77,0-1.47.14-2.13.42-.64.28-1.2.7-1.67,1.25-.46.54-.82,1.23-1.08,2.06-.27.82-.4,1.78-.4,2.88s.13,2.06.4,2.9c.26.83.63,1.53,1.08,2.08.47.54,1.03.95,1.67,1.23.65.27,1.36.4,2.13.4.63,0,1.17-.07,1.65-.21.47-.14.88-.33,1.21-.58.34-.25.65-.54.9-.88s.46-.71.65-1.13h4.54c-.25,1-.62,1.91-1.1,2.73-.49.82-1.1,1.53-1.83,2.13-.74.6-1.6,1.06-2.58,1.4-.99.33-2.13.5-3.42.5Z" fill="#fff"/>
  <path d="M974.37,514.54c-1.13,0-2.18-.14-3.17-.4-.97-.28-1.83-.69-2.56-1.23-.74-.54-1.33-1.21-1.77-2.02-.45-.82-.73-1.76-.85-2.81h4.4c.17.82.59,1.47,1.27,1.94.68.47,1.57.71,2.69.71,1.39,0,2.38-.23,2.96-.69s.88-1.06.88-1.81c0-.5-.17-.9-.5-1.21-.33-.3-.77-.55-1.29-.73-.53-.19-1.14-.35-1.83-.48-.68-.13-1.39-.27-2.1-.44-.72-.17-1.43-.38-2.13-.63-.68-.25-1.29-.59-1.81-1.04-.53-.44-.96-1.01-1.29-1.69-.33-.68-.5-1.54-.5-2.58s.19-1.86.58-2.6c.4-.75.95-1.38,1.65-1.88.69-.51,1.5-.9,2.42-1.15.93-.26,1.92-.4,2.98-.4,1.26,0,2.36.16,3.29.46.94.31,1.73.74,2.38,1.29.65.54,1.16,1.18,1.52,1.92.38.72.63,1.51.75,2.35h-4.42c-.16-.67-.52-1.2-1.08-1.6-.56-.4-1.31-.6-2.27-.6-1.13,0-1.95.22-2.46.67-.52.45-.77.96-.77,1.54,0,.53.17.95.5,1.27.33.32.76.58,1.29.79.53.21,1.13.39,1.81.54.68.14,1.38.3,2.1.48.72.17,1.42.39,2.1.65.69.25,1.3.59,1.83,1.02.53.43.96.97,1.29,1.63.33.64.5,1.45.5,2.42,0,.89-.18,1.72-.54,2.48-.36.77-.9,1.44-1.6,2.02-.71.57-1.58,1.02-2.63,1.33-1.04.32-2.24.48-3.6.48Z" fill="#fff"/>
  <path d="M623.24,652.43c-1.47,0-2.81-.24-4-.71-1.18-.47-2.2-1.15-3.04-2.04-.85-.9-1.5-2.01-1.96-3.31-.46-1.32-.69-2.82-.69-4.5s.23-3.17.69-4.48c.46-1.32,1.11-2.42,1.96-3.31.84-.9,1.86-1.59,3.04-2.06,1.19-.47,2.53-.71,4-.71s2.8.24,3.98.71c1.19.47,2.21,1.16,3.04,2.06.84.89,1.5,1.99,1.96,3.31.47,1.31.71,2.8.71,4.48s-.24,3.18-.71,4.5c-.46,1.31-1.11,2.41-1.96,3.31-.83.89-1.85,1.57-3.04,2.04-1.18.47-2.51.71-3.98.71ZM623.24,648.47c.76,0,1.46-.13,2.1-.4.65-.28,1.21-.69,1.67-1.23.47-.55.84-1.25,1.1-2.08.26-.83.4-1.8.4-2.9s-.14-2.05-.4-2.88c-.27-.83-.64-1.52-1.1-2.06-.46-.55-1.02-.97-1.67-1.25-.64-.28-1.34-.42-2.1-.42s-1.47.14-2.13.42c-.64.28-1.2.7-1.67,1.25-.46.54-.82,1.23-1.08,2.06-.27.82-.4,1.78-.4,2.88s.13,2.06.4,2.9c.26.83.63,1.53,1.08,2.08.47.54,1.03.95,1.67,1.23.65.27,1.36.4,2.13.4Z" fill="#fff"/>
  <path d="M634.23,631.6h4.54l3.23,14.23h.15l3.52-14.23h4.69l3.52,14.23h.15l3.23-14.23h4.56l-5.44,20.54h-4.83l-3.52-14.23-3.52,14.23h-4.83l-5.44-20.54Z" fill="#fff"/>
  <path d="M664.01,631.6h5.71l7.77,14.08h.15v-14.08h4.4v20.54h-5.71l-7.77-14.08h-.15v14.08h-4.4v-20.54Z" fill="#fff"/>
  <path d="M692.9,631.6h6.44l4.85,14.23h.15l4.83-14.23h6.46v20.54h-4.4v-14.52h-.15l-5,14.52h-3.67l-4.98-14.52h-.15v14.52h-4.4v-20.54Z" fill="#fff"/>
  <path d="M719.74,631.6h13.92v3.96h-9.52v4.42h8.94v3.67h-8.94v4.54h9.81v3.96h-14.21v-20.54Z" fill="#fff"/>
  <path d="M737.33,631.6h7.92c1.43,0,2.72.24,3.88.71,1.15.47,2.14,1.16,2.96,2.04.82.88,1.44,1.95,1.88,3.23.44,1.27.67,2.7.67,4.29s-.22,3.08-.67,4.35c-.43,1.27-1.06,2.34-1.88,3.23-.82.88-1.81,1.54-2.96,2-1.16.46-2.45.69-3.88.69h-7.92v-20.54ZM745.1,648.18c.69,0,1.34-.13,1.96-.38.63-.26,1.17-.66,1.65-1.19.47-.53.84-1.19,1.1-1.98.28-.79.42-1.71.42-2.77s-.14-1.98-.42-2.77c-.27-.79-.64-1.45-1.1-1.98-.47-.53-1.02-.92-1.65-1.17-.61-.26-1.27-.4-1.96-.4h-3.38v12.63h3.38Z" fill="#fff"/>
  <path d="M757.86,631.6h4.4v20.54h-4.4v-20.54Z" fill="#fff"/>
  <path d="M771.49,631.6h5.42l7.33,20.54h-4.54l-1.31-3.81h-8.35l-1.33,3.81h-4.54l7.33-20.54ZM776.95,644.37l-2.67-7.77h-.15l-2.67,7.77h5.48Z" fill="#fff"/>
  <path d="M257.25,631.6h5.42l7.33,20.54h-4.54l-1.31-3.81h-8.35l-1.33,3.81h-4.54l7.33-20.54ZM262.71,644.37l-2.67-7.77h-.15l-2.67,7.77h5.48Z" fill="#fff"/>
  <path d="M271.92,631.6h4.4v20.54h-4.4v-20.54Z" fill="#fff"/>
  <path d="M291.42,631.6h5.42l7.33,20.54h-4.54l-1.31-3.81h-8.35l-1.33,3.81h-4.54l7.33-20.54ZM296.88,644.37l-2.67-7.77h-.15l-2.67,7.77h5.48Z" fill="#fff"/>
  <path d="M314.3,652.43c-1.47,0-2.81-.24-4-.71-1.18-.47-2.2-1.15-3.04-2.04-.85-.9-1.5-2.01-1.96-3.31-.46-1.32-.69-2.82-.69-4.5s.23-3.17.69-4.48c.46-1.32,1.11-2.42,1.96-3.31.84-.9,1.86-1.59,3.04-2.06,1.19-.47,2.53-.71,4-.71,1.29,0,2.43.17,3.42.5.98.33,1.84.8,2.58,1.4.73.6,1.34,1.31,1.83,2.13.48.82.85,1.73,1.1,2.73h-4.54c-.18-.4-.4-.77-.65-1.1s-.55-.63-.9-.88c-.33-.26-.74-.46-1.21-.6-.47-.14-1.02-.21-1.65-.21-.77,0-1.47.14-2.13.42-.64.28-1.2.7-1.67,1.25-.46.54-.82,1.23-1.08,2.06-.27.82-.4,1.78-.4,2.88s.13,2.06.4,2.9c.26.83.63,1.53,1.08,2.08.47.54,1.03.95,1.67,1.23.65.27,1.36.4,2.13.4s1.42-.1,1.96-.31c.55-.22,1.01-.51,1.38-.88.36-.36.65-.77.85-1.23.22-.46.39-.92.5-1.4h-5.13v-3.52h9.67v1.6c0,1.47-.21,2.81-.63,4-.41,1.2-1,2.22-1.79,3.06-.79.83-1.76,1.48-2.9,1.94-1.14.46-2.45.69-3.92.69Z" fill="#fff"/>
  <path d="M326.77,631.6h13.92v3.96h-9.52v4.42h8.94v3.67h-8.94v4.54h9.81v3.96h-14.21v-20.54Z" fill="#fff"/>
  <path d="M344.36,631.6h5.71l7.77,14.08h.15v-14.08h4.4v20.54h-5.71l-7.77-14.08h-.15v14.08h-4.4v-20.54Z" fill="#fff"/>
  <path d="M371.05,635.56h-6.17v-3.96h16.73v3.96h-6.17v16.58h-4.4v-16.58Z" fill="#fff"/>
  <path d="M390.54,652.43c-1.13,0-2.18-.14-3.17-.4-.97-.28-1.83-.69-2.56-1.23-.74-.54-1.33-1.21-1.77-2.02-.45-.82-.73-1.76-.85-2.81h4.4c.17.82.59,1.47,1.27,1.94.68.47,1.57.71,2.69.71,1.39,0,2.38-.23,2.96-.69s.88-1.06.88-1.81c0-.5-.17-.9-.5-1.21-.33-.3-.77-.55-1.29-.73-.53-.19-1.14-.35-1.83-.48-.68-.13-1.39-.27-2.1-.44-.72-.17-1.43-.38-2.13-.63-.68-.25-1.29-.59-1.81-1.04-.53-.44-.96-1.01-1.29-1.69-.33-.68-.5-1.54-.5-2.58s.19-1.86.58-2.6c.4-.75.95-1.38,1.65-1.88.69-.51,1.5-.9,2.42-1.15.93-.26,1.92-.4,2.98-.4,1.26,0,2.36.16,3.29.46.94.31,1.73.74,2.38,1.29.65.54,1.16,1.18,1.52,1.92.38.72.63,1.51.75,2.35h-4.42c-.16-.67-.52-1.2-1.08-1.6-.56-.4-1.31-.6-2.27-.6-1.13,0-1.95.22-2.46.67-.52.45-.77.96-.77,1.54,0,.53.17.95.5,1.27.33.32.76.58,1.29.79.53.21,1.13.39,1.81.54.68.14,1.38.3,2.1.48.72.17,1.42.39,2.1.65.69.25,1.3.59,1.83,1.02.53.43.96.97,1.29,1.63.33.64.5,1.45.5,2.42,0,.89-.18,1.72-.54,2.48-.36.77-.9,1.44-1.6,2.02-.71.57-1.58,1.02-2.63,1.33-1.04.32-2.24.48-3.6.48Z" fill="#fff"/>
  <path d="M24.01,334.82h8.79c1.01,0,1.94.17,2.79.5.86.32,1.59.77,2.19,1.35.61.58,1.08,1.29,1.42,2.13s.5,1.76.5,2.77c0,1.29-.23,2.35-.69,3.19-.45.83-.93,1.49-1.46,1.98-.63.57-1.33,1-2.1,1.29l4.98,7.33h-4.98l-4.71-7.04h-2.33v7.04h-4.4v-20.54ZM32.51,344.36c.82,0,1.48-.24,2-.73.53-.48.79-1.17.79-2.06s-.27-1.55-.79-2.04c-.52-.5-1.18-.75-2-.75h-4.1v5.58h4.1Z" fill="#fff"/>
  <path d="M43.22,334.82h13.92v3.96h-9.52v4.42h8.94v3.67h-8.94v4.54h9.81v3.96h-14.21v-20.54Z" fill="#fff"/>
  <path d="M65.36,338.78h-6.17v-3.96h16.73v3.96h-6.17v16.58h-4.4v-16.58Z" fill="#fff"/>
  <path d="M81.49,334.82h5.42l7.33,20.54h-4.54l-1.31-3.81h-8.35l-1.33,3.81h-4.54l7.33-20.54ZM86.95,347.59l-2.67-7.77h-.15l-2.67,7.77h5.48Z" fill="#fff"/>
  <path d="M96.16,334.82h4.4v20.54h-4.4v-20.54Z" fill="#fff"/>
  <path d="M104.67,334.82h4.4v16.58h9.38v3.96h-13.77v-20.54Z" fill="#fff"/>
  <path d="M126.96,334.82h6.44l4.85,14.23h.15l4.83-14.23h6.46v20.54h-4.4v-14.52h-.15l-5,14.52h-3.67l-4.98-14.52h-.15v14.52h-4.4v-20.54Z" fill="#fff"/>
  <path d="M153.79,334.82h13.92v3.96h-9.52v4.42h8.94v3.67h-8.94v4.54h9.81v3.96h-14.21v-20.54Z" fill="#fff"/>
  <path d="M171.39,334.82h7.92c1.43,0,2.72.24,3.88.71,1.15.47,2.14,1.16,2.96,2.04.82.88,1.44,1.95,1.88,3.23.44,1.27.67,2.7.67,4.29s-.22,3.08-.67,4.35c-.43,1.27-1.06,2.34-1.88,3.23-.82.88-1.81,1.54-2.96,2-1.16.46-2.45.69-3.88.69h-7.92v-20.54ZM179.16,351.4c.69,0,1.34-.13,1.96-.38.63-.26,1.17-.66,1.65-1.19.47-.53.84-1.19,1.1-1.98.28-.79.42-1.71.42-2.77s-.14-1.98-.42-2.77c-.27-.79-.64-1.45-1.1-1.98-.47-.53-1.02-.92-1.65-1.17-.61-.26-1.27-.4-1.96-.4h-3.38v12.63h3.38Z" fill="#fff"/>
  <path d="M191.92,334.82h4.4v20.54h-4.4v-20.54Z" fill="#fff"/>
  <path d="M205.55,334.82h5.42l7.33,20.54h-4.54l-1.31-3.81h-8.35l-1.33,3.81h-4.54l7.33-20.54ZM211.01,347.59l-2.67-7.77h-.15l-2.67,7.77h5.48Z" fill="#fff"/>
</svg>