<svg id="Capa_1" data-name="Capa 1" xmlns="http://www.w3.org/2000/svg" viewBox="0 0 425.2 65.62"><defs><style>.cls-1{fill:#fff;}</style></defs><path class="cls-1" d="M200.74,263.87c0-2.5-.06-39.18-.06-39.18h12.6v16.74a25.83,25.83,0,0,1,13.52-3.8,26.24,26.24,0,1,1-26.06,26.24Zm26.06,13.7a13.71,13.71,0,1,0-13.61-13.7A13.65,13.65,0,0,0,226.8,277.57Z" transform="translate(-27.3 -224.59)"/><path class="cls-1" d="M443.41,253.4a13.6,13.6,0,0,0-8.74-3.14,13.93,13.93,0,0,0-9.15,3.5,14.11,14.11,0,0,0-4.46,10.15,14.34,14.34,0,0,0,4.33,10,14,14,0,0,0,9.27,3.62,13.8,13.8,0,0,0,8.68-3.08l9.16,8.71a25.91,25.91,0,0,1-16.86,7,26.38,26.38,0,0,1-11-2,26,26,0,0,1-8.23-5.42,25,25,0,0,1-5.75-8.27,26.34,26.34,0,0,1,.11-21.37,23.85,23.85,0,0,1,5.62-8.06,25,25,0,0,1,8.49-5.48,28.1,28.1,0,0,1,10.31-1.9,23,23,0,0,1,9.53,2,26.06,26.06,0,0,1,7.62,4.85Z" transform="translate(-27.3 -224.59)"/><path class="cls-1" d="M138.5,290.11s0-19.9-.07-24.14c-.06-6.08-1.24-7.81-2.73-10a13.59,13.59,0,0,0-11-5.59,13.39,13.39,0,0,0-11,5.54c-1.92,3.06-2.78,4.42-2.78,10.07v24.12H98.38s.05-10.84,0-24.12c0-11.92,4.06-16.37,7.28-20.18a27.88,27.88,0,0,1,12.79-7.48,24.23,24.23,0,0,1,12.15-.06,27,27,0,0,1,12.66,7l1.44,1.56a21.4,21.4,0,0,1,3.62-3.52,25.07,25.07,0,0,1,5.59-3.45,24.4,24.4,0,0,1,11.19-2.27c3.71,0,11.4,1.14,17.24,6.75,3.84,3.69,7.7,8.62,8.45,16.72.22,2.44.22,29,.22,29H178.53s.26-14.65,0-26.26a13.73,13.73,0,0,0-13.82-13.49,13.43,13.43,0,0,0-9.17,3.6,12.68,12.68,0,0,0-2.79,3.54A18,18,0,0,0,151,266c-.29,9.6,0,24.14,0,24.14Z" transform="translate(-27.3 -224.59)"/><path class="cls-1" d="M337.33,264a26.24,26.24,0,1,1-26.24-26.24A26.24,26.24,0,0,1,337.33,264Zm-26.24-13.71A13.71,13.71,0,1,0,324.79,264,13.71,13.71,0,0,0,311.09,250.26Z" transform="translate(-27.3 -224.59)"/><rect class="cls-1" x="235.23" y="12.9" width="12.54" height="52.72"/><path class="cls-1" d="M89.19,290.11H76.65V248.85s-30.5,0-33.58,0a4.55,4.55,0,0,0-4.51,4.5A4.5,4.5,0,0,0,43,257.84c2.91.14,6,.45,9.2.82a26.47,26.47,0,0,1,7.6,1.93,12.56,12.56,0,0,1,6.39,7.81c1.75,6.37.59,15.24-7.35,19.7-4,2.22-10.47,1.88-22.08,1.87H29.09V278.52s13.81.05,21.75,0a5.77,5.77,0,0,0,3-.58,4.46,4.46,0,0,0,2.33-4.07,4.52,4.52,0,0,0-2.24-3.76,7,7,0,0,0-3.47-.72C42,269,37,268.32,33.76,265.78a16.81,16.81,0,0,1-5.59-7.72,15.21,15.21,0,0,1-.51-8.21,17.12,17.12,0,0,1,4.68-8,18.23,18.23,0,0,1,12.53-4.52c5.86,0,44.33,0,44.33,0Z" transform="translate(-27.3 -224.59)"/><path class="cls-1" d="M352.33,279l.09-29.06-12.69,0V237.39h12.58v-12.8h12.46v12.8h34v52.72H386.22V249.93H364.76v7.36l.12,16a5.94,5.94,0,0,0,.43,3.15,3.65,3.65,0,0,0,1.38,1.51,4.48,4.48,0,0,0,2.81.6l7,0V290H363.29A10.86,10.86,0,0,1,352.33,279Z" transform="translate(-27.3 -224.59)"/></svg>